<svg width="1665" height="905" viewBox="0 0 1665 905" fill="#1ED760" xmlns="http://www.w3.org/2000/svg">
<path d="M0 74H28V350H0V74Z" />
<path d="M906 230H938V615H906V230Z" />
<path d="M891 74H953V132H891V74Z" />
<path d="M102 212H130V488H102V212Z" />
<path d="M102 470H580V488H102V470Z" />
<path d="M410 321H431V859H410V321Z" />
<path d="M1048 306H1114V844H1048V306Z" />
<path d="M1599 186H1665V724H1599V186Z" />
<path d="M595 0H616V455H595V0Z" />
<path d="M431 320.849L445.849 306L594.945 455.096L580.096 469.945L431 320.849Z" />
<path d="M1114 306.425L1146.42 274L1599.21 726.788L1566.79 759.212L1114 306.425Z" />
<path d="M420 493.849L434.849 479L845.925 890.075L831.075 904.925L420 493.849Z" />
<path d="M102 212H273V230H102V212Z" />
<path d="M0 339H273V350H0V339Z" />
</svg>
