<svg width="1860" height="1019" viewBox="0 0 1860 1019" fill="#7dc4c9" xmlns="http://www.w3.org/2000/svg">
            <rect y="124" width="30" height="895"  />
            <rect x="30" y="494" width="30" height="525"  />
            <rect x="60" y="934" width="30" height="85"  />
            <rect x="120" y="550" width="30" height="469"  />
            <rect x="150" y="72" width="30" height="947"  />
            <rect x="180" y="344" width="30" height="675"  />
            <rect x="210" y="494" width="30" height="525"  />
            <rect x="240" y="983" width="30" height="36"  />
            <rect x="270" y="741" width="30" height="278"  />
            <rect x="300" y="562" width="30" height="457"  />
            <rect x="330" y="186" width="30" height="833"  />
            <rect x="360" width="30" height="1019"  />
            <rect x="390" y="616" width="30" height="403"  />
            <rect x="420" y="983" width="30" height="36"  />
            <rect x="435" y="890" width="30" height="129"  />
            <rect x="465" y="678" width="30" height="341"  />
            <rect x="495" y="529" width="30" height="490"  />
            <rect x="525" y="186" width="30" height="833"  />
            <rect x="555" y="849" width="30" height="170"  />
            <rect x="585" y="995" width="30" height="24"  />
            <rect x="615" y="741" width="30" height="278"  />
            <rect x="645" y="72" width="30" height="947"  />
            <rect x="675" y="382" width="30" height="637"  />
            <rect x="705" y="586" width="30" height="433"  />
            <rect x="735" y="995" width="30" height="24"  />
            <rect x="765" y="479" width="30" height="540"  />
            <rect x="795" y="266" width="30" height="753"  />
            <rect x="855" y="974" width="30" height="45"  />
            <rect x="885" y="588" width="30" height="431"  />
            <rect x="915" y="371" width="30" height="648"  />
            <rect x="945" y="266" width="30" height="753"  />
            <rect x="975" y="749" width="30" height="270"  />
            <rect x="1005" y="997" width="30" height="22"  />
            <rect x="1035" y="920" width="30" height="99"  />
            <rect x="1065" y="16" width="30" height="1003"  />
            <rect x="1095" y="186" width="30" height="833"  />
            <rect x="1125" y="586" width="30" height="433"  />
            <rect x="1155" y="697" width="30" height="322"  />
            <rect x="1230" y="961" width="30" height="58"  />
            <rect x="1260" y="588" width="30" height="431"  />
            <rect x="1290" y="140" width="30" height="879"  />
            <rect x="1320" y="548" width="30" height="471"  />
            <rect x="1350" y="983" width="30" height="36"  />
            <rect x="1380" y="961" width="30" height="58"  />
            <rect x="1410" y="479" width="30" height="540"  />
            <rect x="1440" y="352" width="30" height="667"  />
            <rect x="1470" y="114" width="30" height="905"  />
            <rect x="1500" y="827" width="30" height="192"  />
            <rect x="1530" y="961" width="30" height="58"  />
            <rect x="1560" y="463" width="30" height="556"  />
            <rect x="1590" y="281" width="30" height="738"  />
            <rect x="1620" y="423" width="30" height="596"  />
            <rect x="1650" y="995" width="30" height="24"  />
            <rect x="1680" y="72" width="30" height="947"  />
            <rect x="1710" y="157" width="30" height="862"  />
            <rect x="1740" y="336" width="30" height="683"  />
            <rect x="1770" y="686" width="30" height="333"  />
            <rect x="1800" y="157" width="30" height="862"  />
            <rect x="1830" y="16" width="30" height="1003"  />
            <rect x="90" y="995" width="30" height="24"  />
         </svg>